<?xml version="1.0" encoding="UTF-8" standalone="no"?>
<!-- Created with Inkscape (http://www.inkscape.org/) -->

<svg
   width="49.685387mm"
   height="49.67849mm"
   viewBox="0 0 49.685387 49.67849"
   version="1.1"
   id="svg1"
   inkscape:version="1.3 (0e150ed, 2023-07-21)"
   sodipodi:docname="logo-tiktok.svg"
   xmlns:inkscape="http://www.inkscape.org/namespaces/inkscape"
   xmlns:sodipodi="http://sodipodi.sourceforge.net/DTD/sodipodi-0.dtd"
   xmlns="http://www.w3.org/2000/svg"
   xmlns:svg="http://www.w3.org/2000/svg">
  <sodipodi:namedview
     id="namedview1"
     pagecolor="#ffffff"
     bordercolor="#000000"
     borderopacity="0.25"
     inkscape:showpageshadow="false"
     inkscape:pageopacity="0.0"
     inkscape:pagecheckerboard="true"
     inkscape:deskcolor="#d1d1d1"
     inkscape:document-units="mm"
     showborder="false"
     borderlayer="false"
     shape-rendering="auto"
     inkscape:zoom="2.5094708"
     inkscape:cx="57.382617"
     inkscape:cy="96.434675"
     inkscape:window-width="1280"
     inkscape:window-height="747"
     inkscape:window-x="0"
     inkscape:window-y="25"
     inkscape:window-maximized="0"
     inkscape:current-layer="layer1" />
  <defs
     id="defs1">
    <clipPath
       clipPathUnits="userSpaceOnUse"
       id="clipPath97">
      <path
         id="path97"
         d="m 828.498,685.74939 c -1.36666,0.45334 -1.82133,0.92 -1.82133,2.28 v 57.84 c 0,0.90667 0.90933,1.81333 1.82133,2.26667 h 50.548 c 10.01867,0 18.21467,-8.18667 18.21467,-18.21334 0,-10.01333 -8.196,-18.21333 -18.21467,-18.21333 -2.27733,0 -5.01066,0.45333 -6.83066,1.37333 -1.368,-16.39999 -15.02934,-29.14666 -31.87734,-29.14666 -0.91066,0 -1.36666,0 -2.27733,0 -3.188,0 -6.376,0.90667 -9.56267,1.81333 m -7.28666,4.10667 -0.91067,40.97333 0.91067,15.04 c 0,0.90667 0.91066,1.81333 1.82133,1.81333 0.91067,0 1.82133,-0.90666 1.82133,-1.81333 l 0.912,-15.04 -0.912,-40.97333 c 0,-0.92 -0.91066,-1.82667 -1.82133,-1.82667 H 822.578 c -0.91066,0 -1.36666,0.90667 -1.36666,1.82667 m -6.37467,3.18667 -0.912,37.78666 0.912,15.04 c 0,0.90667 0.91067,1.81333 1.82133,1.81333 0.91067,0 1.82134,-0.90666 1.82134,-1.81333 l 0.91066,-15.04 -0.91066,-37.78666 c 0,-0.92 -0.91067,-1.82667 -1.82134,-1.82667 -0.91066,0 -1.82133,0.90667 -1.82133,1.82667 m -18.216,4.09333 -0.91066,33.69333 0.91066,15.49333 c 0,0.90667 0.45467,1.36 1.36533,1.36 0.91067,0 1.36667,-0.45333 1.36667,-1.36 l 0.91067,-15.49333 -0.91067,-33.69333 c 0,-0.90667 -0.91067,-1.36 -1.36667,-1.36 -0.45466,0 -1.36533,0.45333 -1.36533,1.36 m 5.92,0.90667 -0.91067,32.78666 0.91067,15.49333 c 0,0.90667 0.91067,1.81334 1.82133,1.81334 0.91067,0 1.82134,-0.90667 1.82134,-1.81334 l 0.91066,-15.49333 -0.91066,-32.78666 c 0,-0.90667 -0.91067,-1.81334 -1.82134,-1.81334 -0.91066,0 -1.82133,0.90667 -1.82133,1.81334 m -11.84,0 -0.91066,32.78666 0.91066,15.49333 c 0,0.90667 0.45467,1.36 1.36534,1.36 0.912,0 1.36666,-0.45333 1.36666,-1.36 l 0.91067,-15.49333 -0.91067,-32.78666 c 0,-0.90667 -0.45466,-1.36 -1.36666,-1.36 -0.91067,0 -1.36534,0.90666 -1.36534,1.36 m 18.216,1.37333 -0.91067,31.41333 0.91067,15.04 c 0,0.90667 0.91067,1.81333 1.82133,1.81333 0.91067,0 1.82134,-0.90666 1.82134,-1.81333 l 0.91066,-15.04 -0.91066,-31.86666 c 0,-0.92 -0.91067,-1.82667 -1.82134,-1.82667 -1.36666,0.45333 -1.82133,0.90667 -1.82133,2.28 m -24.136,1.36 -0.91066,30.05333 0.91066,15.94667 c 0,0.90666 0.45467,1.36 1.36534,1.36 0.456,0 1.36666,-0.45334 1.36666,-1.36 l 1.36667,-15.94667 -1.36667,-30.05333 c 0,-0.90667 -0.45466,-1.36 -1.36666,-1.36 -0.91067,0 -1.36534,0.45333 -1.36534,1.36 m -5.92,5.46667 -1.36666,24.58666 1.36666,15.94667 c 0,0.45333 0.45467,0.90666 0.91067,0.90666 0.91067,0 1.36667,-0.45333 1.36667,-0.90666 l 1.36533,-15.94667 -1.36533,-24.58666 c 0,-0.45334 -0.456,-0.90667 -0.91067,-0.90667 -0.912,0 -1.36667,0.45333 -1.36667,0.90667 m -11.84,8.19999 -1.36666,16.38667 1.36666,15.49333 c 0,0.45334 0.456,0.90667 0.91067,0.90667 0.456,0 0.91067,-0.45333 0.91067,-0.90667 l 1.36666,-15.49333 -1.36666,-16.38667 c 0,-0.45333 -0.45467,-0.90666 -0.91067,-0.90666 -0.45467,0 -0.45467,0.45333 -0.91067,0.90666 m -5.464,0.45334 -1.36666,15.93333 1.36666,15.04 c 0,0.45333 0.45467,0.90667 0.91067,0.90667 0,0 0.45467,-0.45334 0.45467,-0.90667 l 1.36666,-15.04 -1.36666,-15.93333 c 0,-0.45334 -0.45467,-0.90667 -0.91067,-0.90667 0,0.45333 -0.45467,0.45333 -0.45467,0.90667 m 11.384,0.90666 -0.91066,15.02667 0.91066,15.94667 c 0,0.45333 0.456,0.90666 0.91067,0.90666 0.456,0 0.91067,-0.45333 0.91067,-0.90666 l 1.82133,-15.94667 -1.36533,-15.02667 c 0,-0.45333 -0.456,-0.90666 -0.91067,-0.90666 -0.91067,0 -1.36667,0.45333 -1.36667,0.90666 m -17.30533,1.82667 -1.36533,13.2 1.36533,13.21333 c 0,0.45334 0.456,0.45334 0.456,0.45334 0.45467,0 0.45467,-0.45334 0.45467,-0.45334 l 1.82266,-13.21333 -1.82266,-13.2 c 0,-0.45333 -0.45467,-0.45333 -0.45467,-0.45333 v 0 l -0.456,0.45333 m -5.464,5.01333 -0.91067,8.18667 0.91067,8.2 c 0,0.45333 0.45467,0.45333 0.45467,0.45333 0.456,0 0.456,-0.45333 0.456,-0.45333 l 1.36666,-8.2 -1.36666,-8.18667 c 0,-0.45333 -0.456,-0.45333 -0.456,-0.45333 0,0 -0.45467,0 -0.45467,0.45333"
         style="display:block;fill:#ffffff;fill-opacity:1;fill-rule:nonzero;stroke:none;stroke-width:0.133333" />
    </clipPath>
    <inkscape:path-effect
       effect="powerclip"
       id="path-effect97"
       is_visible="true"
       lpeversion="1"
       inverse="true"
       flatten="false"
       hide_clip="false"
       message="Utilise la règle de remplissage « fill-rule: evenodd » de la boîte de dialogue &lt;b&gt;Fond et contour&lt;/b&gt; en l'absence de résultat de mise à plat après une conversion en chemin." />
  </defs>
  <g
     inkscape:label="Calque 1"
     inkscape:groupmode="layer"
     id="layer1"
     transform="translate(-87.191952,-99.631097)">
    <path
       style="fill:#ff008c;fill-opacity:1;stroke-width:0.17068"
       d="m 109.34748,149.10544 c -5.59811,-0.64285 -10.786996,-3.15649 -14.800021,-7.1695 -3.553407,-3.55342 -5.771792,-7.69951 -6.847179,-12.79717 -0.538991,-2.55499 -0.538991,-6.83239 0,-9.38737 2.161882,-10.24799 9.799068,-17.78558 19.9857,-19.72507 2.19553,-0.418019 6.48847,-0.425274 8.6193,-0.0146 9.05156,1.74466 16.15571,7.80798 19.17605,16.36652 1.75313,4.9677 1.75313,11.16588 0,16.13359 -2.97438,8.42831 -10.07708,14.58203 -18.77738,16.26859 -1.98598,0.38498 -5.4871,0.53964 -7.35647,0.32497 z m 1.22417,-10.50077 c 0.60144,-0.14177 1.53842,-0.49489 2.08218,-0.78471 1.20354,-0.64148 2.85051,-2.31703 3.46026,-3.52033 0.9025,-1.78101 0.95926,-2.32157 0.95926,-9.13752 v -6.29445 l 0.53482,0.45003 c 1.16793,0.98275 2.9656,1.57968 5.01225,1.66437 l 1.19475,0.0494 0.0477,-2.16746 c 0.0541,-2.45886 0.0888,-2.39425 -1.3886,-2.58713 -2.29045,-0.29902 -4.44705,-2.58426 -4.80975,-5.09663 -0.064,-0.44288 -0.21454,-0.88681 -0.33466,-0.9865 -0.13685,-0.11357 -1.07005,-0.16343 -2.49897,-0.13351 l -2.28055,0.0477 -0.0853,10.58212 c -0.0848,10.51886 -0.0876,10.58633 -0.46348,11.28916 -1.4627,2.73495 -4.83436,2.95903 -6.6055,0.43899 -0.40321,-0.57369 -0.52428,-0.94984 -0.57599,-1.7896 -0.0564,-0.91528 0.003,-1.19346 0.42624,-1.99906 0.68604,-1.30567 1.59932,-1.92123 2.99354,-2.01765 0.58719,-0.0406 1.16363,-0.15094 1.28097,-0.2452 0.24984,-0.20068 0.30083,-3.82348 0.0592,-4.205 -0.22865,-0.36097 -2.92639,-0.16721 -4.11282,0.29541 -1.99317,0.77718 -3.98618,2.77083 -4.79499,4.79652 -0.56984,1.42722 -0.6517,4.04231 -0.1756,5.60979 0.41768,1.37512 1.4511,3.00521 2.4653,3.88869 0.85075,0.7411 2.82368,1.72197 3.88035,1.92917 1.18445,0.23225 2.53673,0.20445 3.72943,-0.0767 z"
       id="path1" />
  </g>
</svg>
